<?xml version="1.0" standalone="no"?>
<!DOCTYPE svg PUBLIC "-//W3C//DTD SVG 20010904//EN"
 "http://www.w3.org/TR/2001/REC-SVG-20010904/DTD/svg10.dtd">
<svg version="1.0" xmlns="http://www.w3.org/2000/svg"
 width="882.000000pt" height="800.000000pt" viewBox="0 0 882.000000 800.000000"
 preserveAspectRatio="xMidYMid meet">

<g transform="translate(0.000000,800.000000) scale(0.100000,-0.100000)"
fill="#000000" stroke="none">
<path d="M658 7952 c-238 -179 -372 -604 -355 -1122 11 -323 79 -584 228 -882
85 -169 190 -308 341 -453 129 -124 228 -195 383 -275 66 -34 121 -63 123 -65
4 -4 -179 -321 -258 -445 -40 -63 -78 -124 -84 -135 -6 -11 -38 -55 -71 -98
-33 -44 -73 -97 -89 -118 -43 -57 -32 -73 47 -66 34 4 77 9 95 13 l32 6 0 -74
c0 -68 14 -215 25 -264 5 -21 4 -21 -388 -27 -348 -6 -669 -26 -685 -41 -14
-14 11 -15 84 -5 50 8 247 12 538 13 l460 1 8 -35 c27 -108 69 -218 126 -327
45 -88 60 -124 50 -128 -7 -2 -85 -23 -172 -45 -244 -62 -545 -164 -718 -244
-31 -14 -62 -26 -67 -26 -6 0 -11 -4 -11 -10 0 -9 31 -1 75 20 124 60 576 205
790 253 145 33 128 36 180 -35 98 -135 158 -207 249 -297 l95 -95 -105 -58
c-168 -93 -388 -248 -604 -427 -124 -103 -431 -402 -520 -507 -30 -36 -63 -74
-73 -85 -30 -32 -217 -283 -217 -291 0 -20 20 -3 57 50 204 289 618 703 958
959 198 148 489 333 526 333 6 0 53 -31 103 -69 50 -37 103 -76 119 -86 21
-14 25 -20 16 -31 -6 -8 -16 -14 -21 -14 -5 0 -21 -8 -36 -18 -15 -11 -63 -43
-107 -72 -44 -30 -82 -56 -85 -59 -3 -3 -27 -24 -55 -46 -85 -68 -175 -157
-221 -216 -51 -66 -60 -93 -12 -34 57 70 151 160 232 224 83 65 246 174 307
206 l36 18 44 -30 c25 -17 88 -54 142 -83 86 -46 97 -55 91 -74 -3 -11 -50
-104 -105 -206 -303 -570 -590 -1268 -744 -1810 -50 -178 -125 -486 -125 -516
0 -2 115 -4 255 -4 l255 0 1 48 c3 132 17 251 46 402 3 14 6 35 6 47 2 16 15
28 49 43 48 22 148 120 148 146 0 8 4 14 8 14 10 0 70 142 83 197 22 93 49
263 49 314 0 47 3 55 18 54 9 0 23 -4 30 -9 7 -4 12 -2 12 4 0 6 4 9 10 5 5
-3 7 -12 3 -20 -3 -10 1 -15 12 -15 9 0 44 -16 76 -35 33 -19 64 -35 68 -35 4
0 16 -9 26 -20 10 -11 23 -20 30 -20 6 0 20 -9 32 -19 11 -10 33 -26 50 -34
16 -9 35 -23 42 -31 8 -9 25 -16 40 -17 14 0 20 -3 14 -6 -19 -7 10 -33 37
-33 23 0 53 -24 43 -34 -4 -3 1 -6 9 -6 9 0 18 7 22 15 3 8 0 15 -6 15 -6 0
-8 3 -4 7 4 5 14 0 21 -11 12 -16 13 -13 10 25 -1 24 -8 66 -15 92 -10 43 -10
51 6 68 11 12 21 16 28 10 6 -5 22 -8 36 -7 13 0 34 -9 47 -21 24 -25 65 -30
80 -10 5 6 10 80 12 162 2 105 7 159 17 179 8 16 14 49 14 73 0 30 5 45 15 49
8 4 15 15 15 26 0 11 5 28 10 38 7 13 7 21 0 25 -6 4 -8 21 -4 42 5 26 3 39
-8 47 -17 13 -43 100 -34 115 4 5 -3 19 -15 30 l-21 19 22 12 c47 25 1 124
-130 280 -104 124 -105 122 18 79 382 -132 382 -132 467 -213 261 -250 521
-394 835 -463 107 -23 367 -23 475 1 119 26 245 71 359 126 159 77 210 109
341 214 60 49 87 62 190 95 98 32 314 83 459 109 l29 5 -36 -34 c-20 -19 -79
-92 -132 -164 -89 -122 -135 -211 -120 -235 10 -16 56 -11 116 13 84 35 268
140 269 154 0 7 7 10 16 6 9 -3 19 -1 23 4 6 10 204 118 266 146 17 8 44 16
61 20 30 6 32 4 67 -66 19 -40 49 -101 65 -137 16 -36 41 -91 56 -123 14 -31
37 -85 51 -120 14 -34 30 -71 35 -82 4 -11 29 -72 55 -135 25 -63 51 -124 56
-135 14 -31 186 -556 221 -675 38 -132 103 -409 123 -519 8 -46 16 -86 19 -88
2 -2 21 -3 43 -1 l39 3 -27 135 c-47 237 -130 556 -194 745 -113 334 -164 472
-276 740 -49 119 -75 177 -149 340 -76 166 -164 353 -172 362 -7 9 12 23 74
53 45 22 89 40 97 40 38 0 528 -344 631 -442 14 -13 59 -53 100 -88 41 -36 80
-69 85 -75 26 -27 75 -68 75 -63 0 10 -44 52 -168 163 -231 206 -322 278 -532
420 -80 54 -146 101 -148 105 -1 4 10 12 25 19 40 18 250 149 268 167 13 14
24 10 97 -34 76 -46 283 -194 353 -253 184 -154 460 -419 554 -532 31 -38 73
-90 94 -115 21 -26 59 -78 84 -115 48 -74 72 -87 27 -15 -98 155 -333 421
-549 621 -192 177 -513 424 -590 453 -16 6 -21 34 -6 34 16 0 187 139 285 232
55 51 123 123 152 159 l53 67 78 -24 c163 -49 339 -119 543 -217 98 -47 321
-165 370 -196 154 -96 260 -158 260 -151 0 10 -117 87 -293 194 -223 135 -561
292 -827 385 -107 38 -105 36 -72 79 33 42 111 172 131 217 21 47 41 132 41
173 0 20 5 44 10 52 7 10 10 -11 10 -70 1 -78 17 -170 32 -185 13 -13 58 279
58 373 l0 44 103 -5 c56 -3 118 -8 137 -11 32 -6 33 -5 10 5 -14 6 -70 14
-125 16 -55 3 -106 10 -112 15 -14 11 -19 148 -5 148 4 0 32 -7 62 -15 70 -19
116 -19 123 -1 8 19 -9 52 -113 226 -155 258 -252 431 -317 568 -36 73 -63
135 -61 136 1 2 60 30 130 64 166 79 312 179 447 309 259 246 420 511 530 869
74 241 101 428 101 692 -1 351 -65 579 -208 733 -141 153 -338 184 -649 103
-198 -51 -487 -173 -695 -293 -46 -26 -144 -83 -218 -126 -74 -43 -229 -130
-344 -192 -205 -110 -210 -113 -230 -95 -12 10 -48 43 -81 73 -108 97 -282
221 -438 313 -227 134 -470 236 -706 297 -115 30 -141 41 -141 63 0 35 -180
256 -209 256 -6 0 -4 -14 5 -35 16 -38 4 -48 -25 -20 -9 9 -43 36 -76 60 -60
44 -60 44 -146 45 l-86 0 40 -77 c21 -43 46 -87 53 -98 30 -42 11 -42 -60 1
-111 67 -256 121 -256 96 0 -6 33 -40 73 -77 39 -37 71 -72 69 -77 -1 -5 2
-17 8 -28 10 -18 9 -18 -17 -5 -88 44 -222 99 -228 93 -5 -5 104 -78 117 -78
5 0 6 -5 3 -10 -6 -10 -27 -8 -107 6 -20 4 -28 1 -28 -9 0 -10 -17 -17 -57
-22 -32 -4 -114 -18 -183 -32 -486 -96 -890 -277 -1255 -561 l-50 -39 -30 23
c-16 13 -118 88 -226 166 -108 79 -268 195 -355 260 -201 147 -369 252 -559
348 -238 121 -235 120 -543 120 l-261 0 -63 -48z m4187 -137 c6 -5 29 -35 52
-65 22 -30 50 -63 61 -73 20 -18 20 -18 27 2 3 12 3 30 0 41 -4 12 -2 20 5 20
7 0 14 -9 17 -20 3 -11 9 -20 13 -20 11 0 65 -134 80 -198 14 -62 34 -64 38
-4 2 23 7 42 11 42 37 0 342 -95 466 -145 136 -56 172 -73 288 -136 256 -142
471 -302 663 -493 77 -78 151 -155 165 -171 43 -54 52 -49 19 11 -36 64 -67
108 -143 197 -27 32 -48 59 -46 61 2 2 43 25 91 50 71 38 88 44 95 32 13 -24
132 -115 182 -140 128 -64 321 -80 456 -38 127 39 292 152 465 319 41 40 76
68 78 64 5 -16 -75 -156 -87 -153 -8 2 -10 -4 -6 -18 5 -14 3 -18 -8 -15 -8 4
-18 -4 -25 -19 -8 -19 -8 -26 1 -29 9 -3 7 -10 -5 -23 -9 -10 -37 -53 -63 -94
-33 -53 -44 -66 -40 -45 5 23 4 26 -4 15 -6 -8 -11 -26 -11 -40 0 -34 -12 -49
-35 -47 -12 1 -24 -7 -30 -20 -5 -13 -15 -23 -22 -23 -7 0 -13 -6 -13 -13 0
-8 -10 -19 -23 -26 -28 -15 -63 -66 -59 -86 2 -8 -4 -15 -14 -15 -10 0 -14 -5
-10 -15 7 -20 1 -19 -20 2 -16 16 -16 16 -10 -5 6 -18 4 -22 -13 -20 -24 3
-117 -68 -124 -94 -3 -10 -10 -18 -17 -18 -6 0 -8 5 -4 11 4 7 -7 3 -25 -7
-26 -15 -29 -20 -14 -25 16 -5 16 -7 -3 -17 -11 -6 -30 -9 -41 -6 -12 3 -24 1
-27 -5 -4 -6 -16 -11 -27 -11 -10 0 -19 -5 -19 -10 0 -6 -13 -9 -28 -8 -33 2
-52 -8 -52 -29 0 -10 -6 -13 -16 -9 -8 3 -26 -2 -39 -12 l-23 -17 26 -50 c15
-27 30 -52 33 -55 18 -15 189 -393 232 -515 131 -368 135 -380 258 -688 10
-26 24 -55 29 -65 6 -9 26 -55 46 -102 19 -46 43 -98 53 -115 10 -16 31 -52
46 -80 62 -113 202 -344 242 -399 23 -33 41 -62 38 -64 -6 -6 -63 35 -107 76
-45 43 -59 37 -47 -21 6 -23 8 -100 7 -172 l-3 -129 -115 5 c-468 17 -1042
-16 -1420 -82 -180 -32 -188 -33 -168 -17 15 13 15 15 0 34 -10 11 -60 56
-112 99 -52 44 -113 97 -135 118 -21 21 -41 34 -43 28 -2 -6 -33 14 -68 44
-36 30 -72 55 -80 55 -21 0 -12 -14 77 -117 42 -48 91 -109 110 -134 35 -45
99 -160 99 -177 0 -4 -28 -16 -62 -26 -35 -10 -104 -31 -153 -47 -99 -32 -109
-34 -100 -18 12 19 -4 59 -24 59 -23 0 -61 -45 -61 -71 0 -55 19 -60 105 -25
88 36 245 84 285 88 l35 3 13 -75 c7 -41 11 -102 10 -135 l-3 -60 -124 -3
c-131 -3 -167 2 -141 18 8 5 11 12 8 16 -11 11 -55 -5 -85 -30 -23 -20 -25
-26 -14 -39 16 -20 77 -41 96 -33 24 9 17 24 -12 29 -16 2 38 5 119 6 l148 1
-7 -32 c-8 -45 -53 -191 -62 -200 -3 -4 -35 -1 -71 8 -135 30 -269 51 -281 43
-29 -17 11 -36 92 -43 92 -8 220 -33 232 -45 9 -9 -21 -68 -74 -147 l-28 -42
-92 24 c-115 30 -148 16 -38 -16 120 -34 117 -31 83 -66 -92 -93 -246 -177
-392 -215 -84 -21 -206 -25 -298 -8 -74 13 -224 64 -284 97 -180 98 -268 151
-297 178 l-33 31 0 100 c0 55 3 141 7 192 l6 91 49 15 c27 8 72 27 99 42 61
33 172 150 164 171 -8 22 93 117 134 125 19 4 57 7 85 7 66 1 113 23 211 100
161 128 229 221 261 356 17 73 14 194 -6 264 -8 27 -6 42 6 67 17 37 15 38
104 -21 59 -39 89 -49 46 -15 -41 32 -31 38 32 16 83 -30 201 -28 264 2 95 46
188 176 235 327 26 85 26 345 0 423 -38 111 -81 185 -147 252 -77 77 -128 99
-234 99 l-71 0 47 34 c116 82 265 88 410 18 194 -94 339 -306 383 -557 19
-113 19 -147 -1 -242 -33 -160 -105 -269 -229 -348 -76 -48 -169 -84 -248 -96
-66 -10 -220 -7 -307 6 -24 4 -16 -1 23 -15 82 -28 169 -34 271 -21 173 23
324 97 427 210 59 63 80 94 152 222 27 47 49 59 116 59 50 0 136 39 206 93 61
48 79 73 44 63 -104 -31 -173 -14 -249 62 -44 45 -64 77 -94 147 -122 287
-233 431 -406 527 -81 44 -127 59 -216 65 -214 15 -390 -114 -514 -379 -76
-163 -110 -351 -110 -613 0 -90 -4 -145 -10 -145 -5 0 -10 8 -10 18 -1 20 -30
63 -30 43 0 -7 16 -77 35 -155 38 -155 47 -246 34 -347 -10 -80 -53 -177 -107
-238 l-39 -45 -5 61 c-3 47 -11 69 -32 97 -73 97 -201 111 -509 57 -205 -36
-367 -25 -562 38 -169 54 -262 66 -382 48 -49 -7 -53 -6 -53 12 0 11 -4 21 -9
23 -35 12 9 298 69 453 4 11 15 38 23 60 73 191 65 166 109 345 16 68 21 121
22 260 1 233 -24 359 -96 474 -38 61 -97 126 -115 126 -7 0 -17 8 -22 18 -13
24 -122 77 -213 102 -147 42 -324 36 -432 -14 -162 -75 -191 -89 -196 -95 -3
-4 -16 -15 -30 -24 -13 -9 -19 -17 -12 -17 7 0 10 -5 7 -11 -4 -6 -14 -8 -22
-5 -8 3 -11 1 -8 -4 3 -6 1 -10 -5 -10 -22 0 -162 -146 -219 -230 -58 -84
-110 -177 -116 -209 -2 -9 -6 -24 -10 -33 -4 -11 -3 -18 4 -18 8 0 8 -6 -1
-19 -7 -11 -16 -18 -20 -15 -4 3 -5 -1 -3 -9 7 -18 -56 -82 -105 -107 -56 -29
-135 -35 -190 -16 -85 30 -90 20 -22 -48 64 -65 136 -110 213 -136 35 -12 70
-26 77 -32 6 -6 38 -60 70 -121 84 -164 176 -256 331 -332 192 -95 434 -98
656 -10 41 17 75 25 90 21 l24 -6 -16 -53 c-19 -66 -25 -72 -64 -75 -45 -4
-119 -42 -129 -67 -5 -11 -29 -41 -54 -67 -35 -36 -50 -45 -67 -41 -17 5 -20
3 -14 -7 6 -10 4 -12 -8 -7 -10 3 -17 2 -17 -3 0 -6 -6 -10 -14 -10 -8 0 -21
-6 -28 -13 -7 -8 -32 -26 -56 -41 -70 -44 -205 -186 -255 -267 -26 -42 -47
-80 -47 -84 0 -3 -6 -13 -14 -21 -8 -7 -16 -19 -18 -26 -3 -9 -17 -9 -59 0
-47 10 -147 30 -314 62 -27 5 -122 19 -210 30 -88 11 -184 25 -214 30 -30 6
-68 10 -85 10 -19 0 -41 9 -56 24 -40 37 -76 80 -83 99 -4 11 -12 15 -19 11
-7 -4 -10 -4 -6 0 4 5 -3 25 -15 45 -65 106 -99 217 -100 331 -3 141 13 261
43 335 17 42 59 182 65 220 4 21 13 52 21 67 8 15 14 36 14 48 0 11 5 20 10
20 6 0 10 7 10 15 0 8 5 15 11 15 6 0 9 7 5 15 -3 8 -1 15 4 15 6 0 10 6 10
14 0 8 8 31 19 53 10 21 29 65 41 98 13 33 29 67 36 76 8 8 14 21 14 27 0 6 8
13 18 17 27 8 114 102 146 157 38 65 63 137 78 225 13 80 8 99 -30 119 -17 8
-19 13 -9 23 6 6 10 26 9 45 -2 23 18 85 69 207 40 96 81 185 91 198 10 13 18
29 18 36 0 7 7 18 15 25 24 20 7 30 -49 30 -57 0 -82 10 -185 74 -180 112
-281 199 -372 320 -24 32 -61 82 -82 110 -21 28 -54 80 -74 116 -20 36 -46 76
-58 90 -12 14 -31 39 -41 55 -13 22 -4 17 36 -22 29 -29 91 -78 138 -109 173
-115 314 -160 472 -151 125 7 213 35 290 94 l62 46 61 -43 c119 -83 114 -65
39 -145 -78 -85 -152 -179 -152 -195 0 -7 39 25 88 70 158 148 416 333 606
435 246 132 589 246 936 309 135 25 151 23 285 -44 120 -59 129 -78 21 -45
-27 8 -51 14 -53 12 -9 -9 51 -50 132 -90 144 -71 192 -79 293 -51 87 24 164
56 155 64 -4 4 -35 12 -68 18 -130 24 -210 44 -269 69 -107 45 -106 48 16 48
60 0 104 1 98 3 -14 5 -13 29 3 35 8 3 3 11 -13 25 -70 60 78 -6 166 -74 26
-19 49 -33 51 -30 10 10 -60 224 -100 306 -23 47 -43 89 -46 95 -3 8 89 -67
124 -100z m-3961 -173 c-6 -4 -14 -14 -17 -22 -4 -12 -6 -12 -6 2 -1 9 -9 19
-18 21 -10 3 -2 5 17 6 19 0 30 -3 24 -7z m-69 -22 c-3 -5 -11 -10 -16 -10 -6
0 -7 5 -4 10 3 6 11 10 16 10 6 0 7 -4 4 -10z m175 -4 c0 -11 -19 -15 -25 -6
-3 5 1 10 9 10 9 0 16 -2 16 -4z m71 -43 c13 -17 13 -17 -6 -3 -11 8 -22 16
-24 17 -2 2 0 3 6 3 6 0 17 -8 24 -17z m39 -38 c14 -19 14 -19 -2 -6 -10 7
-18 18 -18 24 0 6 1 8 3 6 1 -2 9 -13 17 -24z m55 -55 c3 -5 1 -10 -4 -10 -6
0 -11 5 -11 10 0 6 2 10 4 10 3 0 8 -4 11 -10z m118 -163 c21 -32 37 -60 35
-62 -8 -9 -37 24 -58 68 -15 30 -29 46 -37 43 -11 -5 -11 -1 -2 17 10 17 13
18 18 7 3 -8 23 -41 44 -73z m-466 -45 c13 -15 23 -32 23 -38 0 -6 14 -31 32
-54 31 -44 46 -84 55 -153 3 -20 9 -40 14 -43 5 -3 10 -26 10 -52 2 -62 11
-104 25 -109 6 -2 10 6 10 18 -1 12 5 24 12 26 6 3 12 -2 12 -11 0 -20 39 -21
46 -1 11 28 24 15 24 -25 0 -36 -2 -40 -26 -40 -26 0 -26 -1 -19 -47 5 -36 4
-45 -5 -37 -6 6 -14 30 -17 53 -8 58 -33 55 -33 -4 0 -30 4 -45 13 -45 17 0
43 -43 28 -48 -6 -2 -11 -13 -11 -24 0 -15 5 -19 20 -15 25 6 26 -1 3 -20 -17
-13 -17 -14 2 -30 21 -17 21 -17 -9 -45 -16 -16 -26 -31 -23 -35 4 -3 17 3 30
15 13 12 27 22 33 22 5 0 4 -4 -2 -8 -21 -14 -74 -95 -74 -113 0 -19 39 -23
52 -5 13 19 16 1 8 -49 -6 -38 -5 -54 6 -66 8 -9 14 -20 13 -25 -2 -15 13 -54
21 -54 5 0 10 8 12 17 3 16 4 16 20 0 32 -33 98 -14 90 26 -2 9 19 9 35 -1 6
-4 13 -21 15 -37 1 -17 9 -30 16 -30 6 0 11 4 10 10 -2 5 -6 9 -10 8 -15 -5
-8 25 7 31 10 4 15 -1 15 -14 0 -22 16 -27 22 -8 3 8 16 2 36 -18 l30 -31 -21
-44 c-12 -24 -26 -47 -30 -50 -4 -3 -11 -38 -14 -79 l-6 -72 24 7 c13 3 38 13
54 20 44 19 115 29 115 16 0 -6 -13 -11 -30 -11 -16 0 -30 -5 -30 -10 0 -6
-10 -8 -24 -4 -13 3 -27 1 -30 -5 -4 -6 0 -11 9 -11 9 0 13 -5 9 -11 -4 -8 -9
-8 -17 0 -26 26 -35 8 -12 -23 12 -15 17 -17 29 -7 8 7 21 9 27 5 8 -4 9 -3 5
4 -13 21 5 13 25 -10 18 -22 18 -22 19 -3 0 11 9 26 20 33 20 12 20 12 0 -38
-25 -64 -26 -128 -2 -146 32 -25 43 -17 36 26 -8 48 13 109 63 187 51 80 44
93 -45 93 -43 -1 -67 -5 -160 -25 l-32 -8 32 58 c95 168 236 255 413 255 l81
0 42 -41 43 -40 -63 -93 c-35 -51 -68 -101 -75 -112 -95 -156 -169 -286 -206
-359 -93 -188 -102 -204 -109 -205 -11 0 -10 28 1 32 4 2 12 14 16 27 6 19 4
23 -9 18 -8 -3 -18 -2 -20 2 -7 10 -78 7 -95 -4 -7 -4 -10 -13 -7 -20 3 -8 -5
-16 -20 -19 -33 -9 -30 -23 6 -31 16 -4 32 -11 35 -16 4 -5 15 -9 26 -9 10 0
19 -4 19 -9 0 -5 6 -11 13 -14 6 -2 5 -3 -3 -1 -119 21 -363 176 -506 322
-146 148 -277 383 -340 607 -47 166 -58 257 -58 475 -1 167 3 236 17 310 29
148 38 176 66 193 23 14 29 13 75 -4 28 -11 61 -32 73 -47z m353 64 c0 -3 -4
-8 -10 -11 -5 -3 -10 -1 -10 4 0 6 5 11 10 11 6 0 10 -2 10 -4z m70 -18 c0
-13 -23 -5 -28 10 -2 7 2 10 12 6 9 -3 16 -11 16 -16z m-10 -59 c0 -9 -4 -8
-15 1 -8 7 -15 19 -15 27 0 12 2 12 15 -1 8 -8 15 -20 15 -27z m7173 10 c39
-21 91 -89 67 -89 -5 0 -10 6 -10 13 0 7 -12 25 -26 40 -23 25 -30 27 -75 23
-27 -3 -58 -10 -68 -16 -27 -14 -35 -13 -19 3 15 14 66 34 91 36 10 1 28 -4
40 -10z m-7113 -49 c0 -5 -4 -10 -10 -10 -5 0 -10 5 -10 10 0 6 5 10 10 10 6
0 10 -4 10 -10z m6951 -3 c-6 -8 -8 -17 -4 -21 4 -4 0 -4 -10 0 -10 3 -17 1
-17 -6 0 -6 -5 -8 -10 -5 -6 4 -1 14 12 25 27 22 46 26 29 7z m161 -7 c-12
-11 -27 -20 -34 -20 -7 0 -2 9 12 20 33 26 50 26 22 0z m-7047 -11 c11 -16 1
-19 -13 -3 -7 8 -8 14 -3 14 5 0 13 -5 16 -11z m7079 -14 c-4 -8 -8 -15 -10
-15 -2 0 -4 7 -4 15 0 8 4 15 10 15 5 0 7 -7 4 -15z m-7057 -37 c-3 -8 -6 -5
-6 6 -1 11 2 17 5 13 3 -3 4 -12 1 -19z m7092 -23 c1 -5 -6 -2 -15 7 -10 9
-13 21 -8 29 5 9 9 8 15 -7 4 -10 8 -23 8 -29z m-145 10 c-4 -15 -2 -25 5 -25
6 0 11 -4 11 -8 0 -5 -17 -9 -37 -10 -35 -1 -36 0 -19 13 10 8 16 21 13 29 -5
13 5 23 26 25 4 1 5 -10 1 -24z m-6889 -91 c3 -16 2 -22 -1 -14 -4 8 -10 17
-14 20 -4 3 -11 16 -15 30 -7 22 -6 23 8 8 9 -8 19 -29 22 -44z m6967 16 c-10
-10 -24 -20 -32 -23 -8 -3 1 -6 20 -6 31 -1 37 3 53 37 l18 37 -6 -37 c-7 -43
9 -52 19 -12 8 32 16 27 20 -12 3 -20 9 -28 19 -26 17 3 21 -12 37 -123 13
-92 13 -328 0 -435 -47 -383 -250 -788 -524 -1039 -60 -56 -184 -142 -265
-185 -77 -40 -239 -98 -245 -87 -5 8 -56 135 -96 241 -35 91 -63 154 -116 265
-18 39 -54 120 -79 180 -52 125 -50 140 27 137 105 -4 203 -55 277 -142 57
-68 119 -188 105 -203 -2 -2 -39 4 -82 14 -87 21 -148 24 -158 8 -3 -6 14 -32
39 -57 51 -53 107 -147 107 -180 0 -12 6 -22 14 -22 20 0 30 38 18 64 -6 11
-13 33 -16 47 -3 14 -17 42 -30 62 l-25 36 32 -6 c18 -3 40 -10 50 -15 10 -5
37 -6 59 -3 l41 7 -7 66 c-4 37 -18 89 -33 120 -14 30 -27 75 -28 101 -2 26
-12 66 -23 89 -11 23 -18 42 -16 42 10 0 43 -40 46 -57 2 -10 6 -13 10 -8 3 6
-2 28 -13 49 -19 40 -14 55 17 56 14 0 27 46 18 61 -3 5 0 16 6 24 7 8 9 15 4
15 -5 0 0 6 10 12 15 8 21 7 28 -6 5 -9 14 -14 19 -10 6 4 4 13 -7 25 -16 17
-16 19 -1 19 10 0 17 5 17 10 0 20 64 9 125 -21 34 -16 84 -52 111 -80 48 -49
64 -58 64 -38 0 26 -74 109 -158 178 -23 18 -39 37 -37 41 3 5 -2 15 -10 23
-18 19 -20 37 -2 37 6 1 1 7 -13 15 -24 14 -24 14 -4 15 12 0 24 7 28 15 3 8
1 15 -5 15 -6 0 -6 7 1 19 5 11 10 29 10 40 0 12 8 21 22 23 33 5 34 28 1 29
-43 2 95 22 150 22 40 0 44 2 30 12 -16 10 -67 26 -128 39 -12 2 -6 4 13 5 17
0 32 6 32 11 0 6 6 10 13 10 6 0 13 10 13 23 1 13 13 36 28 52 29 31 32 45 14
63 -9 9 -7 12 9 12 25 0 39 41 23 70 -16 29 -3 43 23 25 30 -21 37 -19 37 10
0 14 -6 25 -12 25 -9 0 -8 3 2 10 9 5 17 5 21 -1 9 -14 41 1 35 17 -3 8 3 20
14 26 11 7 20 21 20 30 0 11 8 18 20 18 11 0 20 6 20 14 0 7 9 16 21 19 16 4
19 11 14 26 -5 18 -2 21 19 21 14 0 26 4 26 9 0 4 18 7 40 5 32 -3 40 0 40 14
0 14 2 14 9 3 6 -9 3 -20 -7 -31z m115 -12 c-3 -7 -5 -2 -5 12 0 14 2 19 5 13
2 -7 2 -19 0 -25z m-453 -1 c-3 -8 -12 -18 -20 -21 -11 -4 -10 0 3 18 20 26
27 28 17 3z m171 3 c-3 -5 -10 -10 -16 -10 -5 0 -9 5 -9 10 0 6 7 10 16 10 8
0 12 -4 9 -10z m-7235 -27 c0 -5 -7 -17 -15 -27 -15 -20 -20 -10 -9 18 6 16
24 22 24 9z m310 -43 c19 -6 9 -8 -38 -9 -40 -1 -61 3 -57 9 7 12 59 12 95 0z
m-125 -10 c-28 -12 -67 -12 -60 0 3 6 23 10 43 9 30 0 33 -2 17 -9z m198 -7
c-7 -2 -21 -2 -30 0 -10 3 -4 5 12 5 17 0 24 -2 18 -5z m42 -13 c3 -5 -1 -10
-9 -10 -9 0 -16 5 -16 10 0 6 4 10 9 10 6 0 13 -4 16 -10z m-347 -6 c25 -7 30
-24 7 -24 -8 0 -15 4 -15 9 0 5 -8 12 -17 14 -10 3 -13 5 -8 6 6 0 20 -2 33
-5z m389 -10 c-3 -3 -12 -4 -19 -1 -8 3 -5 6 6 6 11 1 17 -2 13 -5z m-117 -32
c25 -9 56 -22 70 -30 24 -13 24 -13 -10 -7 -19 4 -40 11 -45 16 -6 4 -35 11
-65 14 -30 4 -68 11 -84 16 -22 7 -33 5 -47 -7 -18 -16 -59 -12 -59 6 0 24
169 18 240 -8z m-280 -3 c0 -6 -4 -7 -10 -4 -5 3 -10 11 -10 16 0 6 5 7 10 4
6 -3 10 -11 10 -16z m437 15 c-3 -3 -12 -4 -19 -1 -8 3 -5 6 6 6 11 1 17 -2
13 -5z m-467 -34 c0 -5 -4 -10 -10 -10 -5 0 -10 5 -10 10 0 6 5 10 10 10 6 0
10 -4 10 -10z m450 -40 c13 -8 13 -10 -2 -10 -9 0 -20 5 -23 10 -8 13 5 13 25
0z m-190 -34 c0 -11 -19 -15 -25 -6 -3 5 1 10 9 10 9 0 16 -2 16 -4z m-160
-56 c0 -21 -16 -26 -39 -11 -18 11 -5 31 20 31 12 0 19 -7 19 -20z m445 -30
c-3 -5 -31 -10 -61 -10 -31 0 -63 -4 -72 -9 -9 -4 -44 -11 -77 -14 l-60 -6 50
15 c28 8 86 19 130 23 44 5 84 9 88 10 5 0 5 -3 2 -9z m-360 -10 c-3 -5 -10
-10 -16 -10 -5 0 -9 5 -9 10 0 6 7 10 16 10 8 0 12 -4 9 -10z m395 -5 c11 -13
10 -14 -4 -9 -9 3 -16 10 -16 15 0 13 6 11 20 -6z m-520 -25 c0 -5 -9 -10 -20
-10 -11 0 -20 5 -20 10 0 6 9 10 20 10 11 0 20 -4 20 -10z m200 -10 c0 -5 -4
-10 -10 -10 -5 0 -10 5 -10 10 0 6 5 10 10 10 6 0 10 -4 10 -10z m6547 -12
c-3 -8 -6 -5 -6 6 -1 11 2 17 5 13 3 -3 4 -12 1 -19z m-6654 5 c-7 -2 -19 -2
-25 0 -7 3 -2 5 12 5 14 0 19 -2 13 -5z m25 -33 c-27 -17 -52 -30 -58 -30 -5
0 -10 -4 -10 -9 0 -5 -7 -11 -14 -14 -11 -4 -13 -1 -9 10 5 12 3 14 -8 8 -8
-5 -11 -4 -6 1 5 5 14 9 20 9 19 2 85 34 92 45 3 5 14 10 23 10 9 0 -4 -14
-30 -30z m-68 0 c0 -5 -4 -10 -9 -10 -6 0 -13 5 -16 10 -3 6 1 10 9 10 9 0 16
-4 16 -10z m6466 -32 c-14 -24 -31 -45 -38 -47 -8 -3 -6 5 5 22 9 15 17 33 17
41 0 13 13 23 33 25 5 1 -3 -18 -17 -41z m-6516 16 c0 -8 -4 -12 -10 -9 -5 3
-10 10 -10 16 0 5 5 9 10 9 6 0 10 -7 10 -16z m235 -34 c-3 -5 -15 -10 -25
-10 -10 0 -22 5 -25 10 -4 6 7 10 25 10 18 0 29 -4 25 -10z m195 0 c-9 -4 -31
-5 -50 0 -34 8 -33 8 15 9 34 0 45 -3 35 -9z m-315 -32 c-27 -12 -64 -37 -81
-55 -18 -18 -37 -33 -43 -33 -6 0 -11 -4 -11 -10 0 -5 -4 -9 -9 -7 -5 1 -16
-7 -24 -18 -9 -11 -19 -16 -23 -12 -15 15 142 137 191 150 47 11 47 5 0 -15z
m405 12 c20 -6 21 -8 5 -8 -11 0 -31 4 -45 8 -20 6 -21 8 -5 8 11 0 31 -4 45
-8z m5941 -17 c13 -16 12 -17 -3 -4 -10 7 -18 15 -18 17 0 8 8 3 21 -13z m272
10 c-7 -2 -19 -2 -25 0 -7 3 -2 5 12 5 14 0 19 -2 13 -5z m-6546 -19 c-3 -3
-12 -4 -19 -1 -8 3 -5 6 6 6 11 1 17 -2 13 -5z m428 -14 c39 -26 26 -26 -22 0
-21 11 -31 20 -23 20 8 0 29 -9 45 -20z m-488 4 c-3 -3 -12 -4 -19 -1 -8 3 -5
6 6 6 11 1 17 -2 13 -5z m6590 -40 c-3 -3 -12 -4 -19 -1 -8 3 -5 6 6 6 11 1
17 -2 13 -5z m-40 -10 c-3 -3 -12 -4 -19 -1 -8 3 -5 6 6 6 11 1 17 -2 13 -5z
m-6097 -14 c0 -5 -4 -10 -10 -10 -5 0 -10 5 -10 10 0 6 5 10 10 10 6 0 10 -4
10 -10z m65 -10 c3 -5 1 -10 -4 -10 -6 0 -11 5 -11 10 0 6 2 10 4 10 3 0 8 -4
11 -10z m6062 -6 c-3 -3 -12 -4 -19 -1 -8 3 -5 6 6 6 11 1 17 -2 13 -5z
m-6678 -40 c-6 -8 -17 -14 -24 -14 -8 0 -15 -6 -18 -12 -2 -8 -8 -9 -13 -4 -5
5 -4 11 4 13 10 4 10 8 1 19 -8 9 -8 14 -1 14 6 0 14 -4 17 -10 12 -19 26 -10
19 12 -6 20 -5 21 10 9 12 -10 14 -17 5 -27z m697 -17 c4 -4 -24 -7 -62 -7
-45 0 -87 -7 -121 -20 -47 -18 -53 -18 -53 -4 0 10 6 14 15 10 8 -3 15 -1 15
4 0 6 9 10 19 10 11 0 22 3 24 8 6 9 154 9 163 -1z m-676 -7 c0 -5 -2 -10 -4
-10 -3 0 -8 5 -11 10 -3 6 -1 10 4 10 6 0 11 -4 11 -10z m413 -52 c-13 -6 -23
-15 -23 -20 0 -4 -6 -8 -13 -8 -7 0 -28 -14 -45 -31 -18 -17 -32 -26 -32 -20
0 16 49 61 66 61 8 0 14 4 14 9 0 5 8 12 18 14 31 8 38 6 15 -5z m6214 6 c-3
-3 -12 -4 -19 -1 -8 3 -5 6 6 6 11 1 17 -2 13 -5z m-34 -31 c-7 -2 -21 -2 -30
0 -10 3 -4 5 12 5 17 0 24 -2 18 -5z m77 -18 c17 -20 -7 -20 -34 0 -19 15 -19
15 1 15 11 0 26 -7 33 -15z m-6440 -65 c0 -5 -2 -10 -4 -10 -3 0 -8 5 -11 10
-3 6 -1 10 4 10 6 0 11 -4 11 -10z m34 -25 c-4 -8 -11 -15 -16 -15 -6 0 -5 6
2 15 7 8 14 15 16 15 2 0 1 -7 -2 -15z m6233 9 c-3 -3 -12 -4 -19 -1 -8 3 -5
6 6 6 11 1 17 -2 13 -5z m66 -1 c-7 -2 -21 -2 -30 0 -10 3 -4 5 12 5 17 0 24
-2 18 -5z m-140 -10 c-7 -2 -21 -2 -30 0 -10 3 -4 5 12 5 17 0 24 -2 18 -5z
m-83 -27 c-19 -7 -44 -17 -55 -21 -28 -11 -15 1 20 19 17 9 39 16 50 15 13 0
8 -5 -15 -13z m-105 -56 c-10 -11 -21 -17 -24 -14 -3 3 3 12 13 20 28 20 32
17 11 -6z m115 -30 c0 -5 -4 -10 -9 -10 -6 0 -13 5 -16 10 -3 6 1 10 9 10 9 0
16 -4 16 -10z m-165 -30 c3 -5 -1 -10 -9 -10 -8 0 -18 5 -21 10 -3 6 1 10 9
10 8 0 18 -4 21 -10z m125 -60 c0 -5 -7 -7 -15 -4 -8 4 -15 8 -15 10 0 2 7 4
15 4 8 0 15 -4 15 -10z m80 -10 c0 -5 -6 -10 -14 -10 -8 0 -23 -3 -33 -6 -16
-6 -16 -5 2 9 23 19 45 22 45 7z m-5979 -9 c-8 -5 -20 -7 -28 -4 -21 8 -15 13
15 13 20 0 23 -3 13 -9z m1792 -51 c35 -17 87 -52 116 -77 28 -25 54 -43 57
-41 2 3 -9 24 -26 46 -21 29 -26 42 -16 42 8 0 18 -5 21 -11 4 -6 13 -8 21 -5
17 7 29 -10 12 -18 -7 -2 -2 -4 11 -3 18 2 38 -15 85 -71 33 -40 82 -86 107
-102 83 -54 104 -136 96 -370 -9 -249 -60 -465 -138 -588 -28 -45 -29 -45 -29
-16 0 16 7 67 15 114 23 129 20 403 -5 521 -28 135 -38 165 -81 253 -50 101
-109 173 -184 223 -77 52 -129 71 -214 79 -171 16 -366 -66 -501 -212 -51 -54
-147 -184 -169 -226 -8 -16 -16 -26 -19 -23 -2 2 8 28 23 57 103 198 275 363
447 430 77 31 122 37 220 33 74 -3 98 -9 151 -35z m4231 -1 c-3 -5 -10 -7 -15
-4 -5 4 -9 2 -9 -3 0 -5 10 -13 22 -19 14 -6 18 -12 10 -16 -6 -4 -20 2 -31
14 -19 21 -19 23 -3 35 18 13 36 9 26 -7z m-4219 -188 c33 -17 80 -51 105 -77
25 -25 41 -45 35 -42 -5 2 -36 16 -67 31 -93 46 -202 45 -292 0 -104 -53 -211
-212 -263 -388 -23 -82 -23 -274 2 -369 31 -121 131 -258 221 -304 41 -20 143
-41 210 -43 l39 -1 -40 -13 c-22 -8 -85 -14 -140 -14 -115 -1 -247 30 -350 81
-79 40 -192 155 -231 234 -27 56 -29 66 -29 189 0 116 3 139 29 215 65 194
171 341 313 436 157 104 328 128 458 65z m188 -209 c26 -22 47 -73 47 -111 0
-74 -61 -123 -129 -102 -49 14 -78 43 -93 92 -10 37 -10 46 8 78 35 66 118 87
167 43z m-2123 -42 c0 -5 -7 -10 -15 -10 -8 0 -15 5 -15 10 0 6 7 10 15 10 8
0 15 -4 15 -10z m57 -12 c-3 -8 -6 -5 -6 6 -1 11 2 17 5 13 3 -3 4 -12 1 -19z
m4494 -53 c86 -45 92 -187 9 -230 -111 -57 -214 54 -169 184 20 56 97 78 160
46z m-2931 -516 c18 -32 8 -61 -29 -86 -19 -13 -38 -23 -42 -23 -16 0 -49 44
-49 66 0 51 97 86 120 43z m205 -184 c63 -21 70 -27 73 -52 3 -40 -7 -51 -53
-54 -87 -6 -123 1 -155 27 -17 15 -28 29 -26 32 3 3 1 11 -6 19 -9 11 -7 15
10 20 12 3 22 9 22 13 0 9 22 17 50 19 8 0 47 -10 85 -24z m2799 -64 c17 -18
18 -24 6 -46 -7 -13 -29 -32 -48 -41 l-36 -17 -28 32 c-28 31 -28 32 -11 59
38 58 44 62 72 47 14 -7 35 -22 45 -34z m-149 -91 c36 -69 8 -92 -116 -96 -97
-4 -103 1 -87 64 6 24 14 32 31 32 12 0 42 7 67 14 69 22 87 20 105 -14z
m-4698 -32 c-3 -8 -6 -5 -6 6 -1 11 2 17 5 13 3 -3 4 -12 1 -19z m-114 -35
c-10 -29 -14 -34 -23 -28 -5 3 -2 15 8 25 20 25 23 25 15 3z m84 -15 c-3 -8
-6 -5 -6 6 -1 11 2 17 5 13 3 -3 4 -12 1 -19z m-19 -195 c2 -32 12 -100 23
-151 10 -52 19 -109 19 -128 0 -33 1 -34 43 -35 l42 -1 -54 -9 c-31 -5 -58 -6
-63 -1 -12 12 -28 169 -28 285 0 105 13 134 18 40z m2162 -72 c-9 -19 -7 -19
37 -14 71 9 122 7 138 -7 12 -10 15 -9 16 6 0 11 9 -8 20 -41 36 -114 87 -202
159 -274 81 -82 151 -134 240 -179 87 -43 127 -81 192 -182 71 -111 170 -192
262 -214 l29 -7 -6 -132 c-10 -191 -22 -258 -51 -281 -14 -10 -75 -41 -138
-67 -62 -27 -122 -53 -133 -58 -134 -64 -191 -83 -315 -107 -118 -22 -257 -3
-380 53 -59 27 -176 110 -233 166 -53 52 -147 182 -147 203 0 7 17 14 38 17
20 3 72 11 115 17 69 11 80 10 96 -4 25 -23 50 -20 63 9 19 41 -17 69 -60 46
-15 -9 -225 -41 -262 -41 -15 0 -45 54 -56 103 l-6 27 63 1 c78 2 124 11 121
24 -2 6 -40 9 -101 6 l-98 -3 -11 43 c-6 24 -14 66 -17 93 l-7 49 49 -6 c26
-4 89 -9 138 -13 74 -5 88 -4 78 7 -11 10 -176 37 -245 39 -15 0 -18 10 -17
63 0 34 6 82 12 107 14 50 8 49 117 23 100 -24 118 -36 112 -73 -4 -31 -4 -31
34 -28 32 2 40 7 42 26 2 13 -2 29 -8 37 -11 14 -90 40 -204 70 -32 8 -61 17
-63 19 -8 8 49 116 94 178 36 48 288 315 301 317 1 1 -2 -8 -8 -18z m720 -111
c71 -18 153 -41 180 -51 103 -39 396 -46 570 -15 132 25 262 31 314 16 70 -20
116 -72 115 -130 0 -33 -17 -89 -18 -62 -1 9 -12 10 -41 6 -30 -5 -48 -2 -77
16 -45 26 -105 23 -177 -9 -48 -22 -122 -87 -152 -135 -10 -16 -20 -24 -22
-17 -7 20 -24 12 -19 -10 4 -16 3 -18 -9 -8 -11 9 -14 7 -14 -12 0 -19 -2 -21
-10 -9 -8 13 -15 10 -41 -18 -17 -18 -29 -36 -26 -39 10 -9 -20 -33 -42 -33
-11 0 -22 -9 -26 -20 -9 -29 -25 -24 -31 9 -4 17 -12 32 -20 35 -9 4 -14 22
-14 56 0 36 -4 50 -14 50 -16 0 -26 -30 -26 -77 0 -38 -9 -41 -35 -13 -10 11
-23 20 -29 20 -23 0 -185 140 -222 192 -37 52 -123 116 -169 126 -21 4 -41 14
-43 21 -3 9 0 11 9 7 8 -4 3 2 -11 13 l-25 21 28 0 c19 0 27 4 24 13 -2 6 -14
10 -27 9 -21 -3 -22 -2 -8 11 8 8 26 17 39 20 13 2 -2 5 -33 6 -53 1 -68 8
-52 24 8 8 99 0 154 -13z m-170 0 c0 -5 -4 -10 -10 -10 -5 0 -10 5 -10 10 0 6
5 10 10 10 6 0 10 -4 10 -10z m-2589 -207 c12 -33 73 -127 105 -163 12 -14 51
-59 86 -100 85 -100 117 -130 142 -131 29 -1 -42 -18 -141 -33 l-82 -12 -40
61 c-64 97 -171 341 -171 392 0 9 14 13 45 13 40 0 47 -3 56 -27z m879 -49
c234 -29 580 -90 610 -109 9 -5 -10 -78 -39 -155 -16 -42 -18 -56 -8 -63 7 -5
-36 -6 -103 -3 -63 3 -171 7 -240 7 -69 1 -115 4 -102 6 38 7 24 21 -33 33
-30 6 -55 16 -55 21 0 5 -7 9 -15 9 -8 0 -15 4 -15 9 0 5 -11 12 -25 15 -29 8
-145 113 -145 132 0 8 -6 17 -14 20 -8 3 -20 19 -26 35 -7 16 -18 29 -24 29
-6 0 -12 9 -13 21 -2 24 -6 24 247 -7z m5665 -43 c6 -10 -12 -117 -24 -146
-49 -113 -154 -308 -206 -380 -73 -102 -68 -100 -185 -64 -216 66 -665 133
-1015 150 -121 5 -239 12 -262 15 l-43 5 0 72 c0 40 -2 90 -5 112 -3 27 -2 32
3 16 9 -29 32 -40 32 -16 0 9 -7 29 -15 45 -9 17 -11 30 -6 30 5 0 13 -9 16
-20 7 -23 25 -27 25 -6 0 8 3 22 7 31 5 14 2 16 -15 10 -41 -12 -22 12 21 27
97 35 436 87 702 108 77 6 151 13 165 14 62 7 800 4 805 -3z m-1757 -81 c41 0
40 -5 -5 -13 -28 -6 -33 -3 -47 27 -21 44 -20 61 1 19 14 -28 22 -33 51 -33z
m11 -92 c12 -15 11 -18 -3 -18 -10 0 -16 8 -16 22 0 12 1 19 3 17 1 -2 9 -12
16 -21z m-4072 -104 c-3 -3 -12 -4 -19 -1 -8 3 -5 6 6 6 11 1 17 -2 13 -5z
m71 -1 c-10 -2 -28 -2 -40 0 -13 2 -5 4 17 4 22 1 32 -1 23 -4z m109 -49 c-3
-3 -12 -4 -19 -1 -8 3 -5 6 6 6 11 1 17 -2 13 -5z m80 0 c-3 -3 -12 -4 -19 -1
-8 3 -5 6 6 6 11 1 17 -2 13 -5z m130 0 c-3 -3 -12 -4 -19 -1 -8 3 -5 6 6 6
11 1 17 -2 13 -5z m-688 -58 c13 -27 43 -61 79 -88 70 -55 101 -71 170 -89 48
-12 57 -11 84 4 21 12 34 14 43 7 21 -17 127 -23 190 -10 33 7 119 28 190 47
72 19 146 39 165 44 109 26 106 24 85 32 -18 7 -17 10 13 29 32 20 42 38 21
38 -5 0 -8 4 -4 9 3 5 -3 12 -12 14 -10 3 5 5 33 6 l51 1 12 -67 c6 -38 14
-80 17 -94 l6 -25 -119 -18 c-293 -42 -520 -100 -792 -201 l-152 -56 -67 63
c-98 93 -158 156 -210 223 -25 33 -50 62 -54 63 -4 2 -8 9 -8 16 0 7 -9 21
-20 31 -16 14 -18 20 -8 26 15 8 133 28 193 33 22 1 47 3 57 4 10 1 24 -14 37
-42z m4831 -97 c125 -11 325 -37 495 -64 123 -19 224 -38 428 -81 15 -4 27
-12 27 -20 0 -39 -303 -319 -452 -418 l-56 -37 -34 21 c-35 21 -159 82 -193
94 -15 6 8 17 95 47 143 49 196 81 238 144 27 40 33 57 28 84 -3 19 -9 38 -14
43 -34 34 -176 21 -274 -26 -73 -35 -174 -127 -184 -169 -5 -17 -9 -39 -9 -47
-1 -19 -23 -15 -100 17 -101 42 -411 145 -507 169 -16 3 -28 8 -28 10 0 1 13
40 29 86 17 46 35 103 41 127 l12 44 166 -7 c92 -3 223 -11 292 -17z m-3645
-153 c13 -31 20 -58 16 -59 -3 -2 -33 -9 -66 -17 -148 -31 -393 -119 -595
-213 -146 -67 -169 -77 -183 -77 -8 0 -59 32 -113 71 -54 39 -104 73 -111 76
-31 12 -6 31 95 70 254 100 451 152 737 197 122 19 177 23 189 14 4 -3 19 -32
31 -62z m56 -123 c86 -172 303 -354 507 -427 135 -48 317 -52 446 -10 28 9
110 43 181 76 181 83 227 98 306 98 78 0 181 -33 269 -85 71 -43 232 -120 290
-138 25 -9 85 -23 134 -32 77 -15 100 -16 180 -5 199 27 372 111 524 254 80
76 61 77 251 -3 140 -59 525 -253 550 -277 8 -7 -143 -72 -274 -117 -128 -44
-413 -133 -570 -177 -44 -12 -106 -33 -137 -46 -32 -13 -62 -24 -68 -24 -6 0
30 45 80 101 131 144 98 146 -52 4 -115 -109 -245 -225 -291 -260 -190 -145
-501 -271 -735 -297 -195 -21 -434 22 -636 115 -289 133 -482 291 -717 587
-79 99 -106 126 -115 118 -4 -5 71 -130 128 -211 26 -38 17 -44 -17 -13 -16
15 -32 26 -38 26 -5 0 -73 25 -151 56 -78 30 -157 61 -176 69 -163 62 -483
214 -659 313 l-64 36 84 41 c195 95 420 181 585 224 153 39 166 40 185 4z
m3169 -22 c163 -46 272 -83 440 -150 170 -68 382 -170 387 -186 3 -11 -14 -22
-193 -116 -76 -40 -134 -65 -140 -60 -39 36 -478 251 -656 321 -76 30 -85 36
-74 50 7 8 32 50 55 93 27 49 49 77 59 77 9 0 64 -13 122 -29z m-4413 -2258
c-2 -16 -4 -5 -4 22 0 28 2 40 4 28 2 -13 2 -35 0 -50z"/>
<path d="M5020 7650 c6 -11 12 -20 14 -20 2 0 2 9 -1 20 -3 11 -9 20 -15 20
-5 0 -4 -9 2 -20z"/>
<path d="M3937 7406 c-84 -30 -92 -36 -111 -93 -29 -84 18 -173 117 -225 60
-31 193 -37 224 -10 21 19 53 97 53 131 0 81 -78 191 -148 211 -51 14 -58 13
-135 -14z"/>
<path d="M3316 7299 c-43 -10 -174 -74 -228 -110 -84 -58 -168 -152 -168 -190
0 -49 165 -30 276 31 122 68 176 109 215 163 35 48 37 80 7 101 -25 18 -44 18
-102 5z"/>
<path d="M4548 7298 c-80 -63 -78 -228 4 -310 46 -46 83 -50 128 -12 82 70 74
209 -18 307 -28 30 -85 37 -114 15z"/>
<path d="M5300 7282 c-67 -36 -104 -163 -64 -221 41 -58 185 -81 270 -42 76
34 125 134 94 190 -18 34 -130 83 -203 88 -48 3 -70 0 -97 -15z"/>
<path d="M5992 7078 c-34 -34 0 -111 79 -184 92 -84 258 -187 294 -182 27 4
25 55 -7 117 -21 42 -102 133 -153 171 -90 69 -187 104 -213 78z"/>
<path d="M4935 7025 c-41 -43 -65 -112 -65 -187 0 -70 19 -112 63 -138 43 -27
69 -25 107 6 44 37 60 75 60 138 0 79 -20 145 -56 183 -40 42 -68 42 -109 -2z"/>
<path d="M4336 6899 c-31 -25 -47 -53 -75 -136 -18 -53 -19 -69 -10 -119 18
-95 90 -166 154 -150 82 21 98 265 24 380 -32 52 -52 57 -93 25z"/>
<path d="M3332 6855 c-289 -99 -607 -405 -763 -735 -22 -47 -45 -93 -50 -102
-5 -10 -9 -23 -9 -29 0 -6 -6 -25 -14 -42 -40 -93 -43 -107 -26 -107 5 0 27
24 49 54 60 82 265 290 340 346 61 47 186 114 256 138 94 33 176 44 277 38
177 -11 176 -11 205 10 16 11 38 40 51 65 20 38 23 55 19 129 -4 95 -24 145
-78 199 -65 66 -138 76 -257 36z"/>
<path d="M5755 6735 c-127 -44 -210 -280 -142 -400 34 -60 54 -67 182 -60 84
5 126 3 180 -10 134 -32 276 -100 381 -183 99 -78 249 -246 290 -324 8 -15 24
-33 35 -39 20 -10 21 -9 15 17 -43 184 -154 423 -261 565 -160 213 -376 384
-544 433 -66 19 -84 19 -136 1z"/>
<path d="M4693 6698 c-57 -62 -71 -240 -25 -306 18 -25 31 -32 56 -32 110 0
132 235 32 335 -31 31 -37 31 -63 3z"/>
<path d="M4072 6508 c-21 -21 -15 -153 8 -198 24 -47 61 -74 88 -65 23 7 45
54 45 95 0 109 -91 218 -141 168z"/>
<path d="M5098 6430 c-49 -38 -68 -81 -68 -153 0 -56 3 -68 20 -77 70 -37 159
109 127 207 -14 45 -41 53 -79 23z"/>
<path d="M4554 6196 c-32 -70 -49 -152 -40 -197 13 -69 72 -102 110 -60 27 30
36 126 21 214 -15 88 -19 97 -46 97 -15 0 -27 -15 -45 -54z"/>
<path d="M5006 5925 c-36 -39 -59 -149 -37 -183 19 -31 97 40 111 103 19 86
-24 134 -74 80z"/>
<path d="M4204 5928 c-12 -19 -8 -132 6 -159 33 -63 68 -76 96 -34 25 38 15
148 -17 181 -24 26 -73 33 -85 12z"/>
<path d="M6022 5845 c-8 -10 -33 -15 -70 -16 -31 0 -75 -6 -96 -12 -35 -11
-22 -12 105 -13 137 0 148 -2 214 -30 142 -61 259 -162 359 -313 31 -46 56
-81 56 -78 0 3 -15 34 -33 69 -46 89 -80 139 -121 178 -10 10 -15 23 -12 29
16 26 -225 188 -264 178 -11 -3 -20 -2 -20 3 0 9 -52 6 -68 -4 -7 -4 -15 0
-18 8 -8 20 -15 20 -32 1z m195 -41 c-3 -3 -12 -4 -19 -1 -8 3 -5 6 6 6 11 1
17 -2 13 -5z"/>
<path d="M4801 5777 c-36 -44 -54 -150 -29 -175 54 -54 121 97 72 166 -17 25
-27 27 -43 9z"/>
<path d="M6995 5560 c-33 -64 -11 -201 49 -295 36 -55 89 -105 112 -105 60 0
21 270 -53 369 -52 69 -83 78 -108 31z"/>
<path d="M7267 4903 c-22 -21 1 -156 58 -338 90 -286 178 -473 267 -565 37
-39 87 -80 96 -80 35 0 82 115 82 199 0 68 -26 193 -56 269 -48 121 -167 303
-259 395 -108 110 -163 145 -188 120z"/>
<path d="M1903 4841 c-59 -27 -76 -65 -71 -154 4 -69 5 -71 50 -112 63 -57
166 -85 261 -71 122 18 113 117 -23 252 -65 65 -125 103 -160 104 -8 0 -34 -9
-57 -19z"/>
<path d="M2076 4296 c-54 -20 -69 -38 -69 -84 0 -76 71 -135 191 -161 107 -22
252 -6 325 36 71 42 37 84 -132 167 -96 46 -109 50 -190 53 -57 2 -99 -1 -125
-11z"/>
<path d="M6941 4262 c-76 -40 -176 -124 -236 -196 -49 -61 -39 -79 54 -100 89
-20 153 -20 222 0 106 32 153 65 190 136 49 95 -12 198 -118 198 -29 0 -63
-11 -112 -38z"/>
<path d="M3270 4269 c0 -5 5 -7 10 -4 6 3 10 8 10 11 0 2 -4 4 -10 4 -5 0 -10
-5 -10 -11z"/>
<path d="M5403 3260 c-27 -11 -40 -54 -23 -75 16 -20 56 -19 64 1 17 45 -6 87
-41 74z"/>
<path d="M5392 2958 c-28 -28 -4 -98 33 -98 19 0 55 40 55 60 0 38 -61 65 -88
38z"/>
<path d="M1000 6549 c0 -5 5 -7 10 -4 6 3 10 8 10 11 0 2 -4 4 -10 4 -5 0 -10
-5 -10 -11z"/>
<path d="M1293 6183 c-15 -6 -17 -43 -3 -43 6 0 10 10 11 23 0 12 3 16 6 10 7
-18 23 -16 23 2 0 15 -14 18 -37 8z"/>
<path d="M1325 6147 c-14 -8 -20 -22 -20 -45 0 -22 -6 -37 -17 -43 -14 -7 -16
-6 -12 6 4 8 1 22 -6 30 -10 12 -9 15 5 15 9 0 15 6 13 13 -8 22 -27 12 -46
-25 -15 -28 -16 -35 -5 -31 12 5 13 -2 8 -31 -5 -23 -3 -36 4 -36 6 0 9 -6 7
-12 -1 -7 -1 -10 1 -5 9 16 22 6 26 -20 2 -18 5 -11 6 19 0 25 6 48 12 50 5 2
11 20 12 41 1 20 7 37 12 37 6 0 15 11 22 25 12 27 9 29 -22 12z m-45 -132 c0
-8 -4 -15 -10 -15 -5 0 -10 7 -10 15 0 8 5 15 10 15 6 0 10 -7 10 -15z"/>
<path d="M1100 6140 c0 -5 5 -10 10 -10 6 0 10 5 10 10 0 6 -4 10 -10 10 -5 0
-10 -4 -10 -10z"/>
<path d="M1212 6030 c0 -14 2 -19 5 -12 2 6 2 18 0 25 -3 6 -5 1 -5 -13z"/>
<path d="M1247 5933 c-4 -7 1 -14 13 -18 23 -7 26 -21 8 -28 -8 -2 -9 -8 -4
-13 5 -5 11 -4 13 4 3 6 12 12 20 12 13 0 13 3 3 15 -7 8 -18 15 -25 15 -8 0
-15 5 -17 12 -3 9 -6 9 -11 1z"/>
<path d="M1120 5881 c0 -12 5 -21 10 -21 6 0 10 6 10 14 0 8 -4 18 -10 21 -5
3 -10 -3 -10 -14z"/>
<path d="M1335 5880 c4 -6 11 -8 16 -5 14 9 11 15 -7 15 -8 0 -12 -5 -9 -10z"/>
<path d="M1430 5855 c-10 -12 -15 -13 -28 -3 -13 11 -15 10 -9 -12 4 -14 7
-31 7 -37 0 -7 5 -13 10 -13 6 0 10 6 10 14 0 8 10 22 22 30 16 11 19 19 12
26 -8 8 -15 6 -24 -5z"/>
<path d="M1440 5796 c0 -9 5 -16 10 -16 6 0 10 4 10 9 0 6 -4 13 -10 16 -5 3
-10 -1 -10 -9z"/>
<path d="M1095 5785 c-3 -8 -7 -22 -10 -30 -2 -9 2 -15 10 -15 10 0 15 10 15
30 0 32 -8 40 -15 15z"/>
<path d="M1421 5754 c0 -11 3 -14 6 -6 3 7 2 16 -1 19 -3 4 -6 -2 -5 -13z"/>
<path d="M1050 5732 c0 -4 9 -13 20 -20 22 -13 27 -3 8 16 -14 14 -28 16 -28
4z"/>
<path d="M1436 5707 c3 -10 9 -15 12 -12 3 3 0 11 -7 18 -10 9 -11 8 -5 -6z"/>
<path d="M1110 5698 c0 -23 -20 -34 -31 -17 -4 7 -11 10 -15 6 -4 -4 1 -14 12
-22 25 -19 32 -19 36 3 3 15 6 14 16 -5 11 -20 10 -23 -5 -23 -12 0 -7 -7 15
-20 31 -19 36 -20 64 -5 41 20 48 19 48 -5 0 -11 6 -20 14 -20 10 0 11 7 2 35
-10 31 -15 35 -45 35 -25 0 -32 3 -27 15 7 20 1 19 -20 -2 -16 -16 -18 -15
-40 12 -18 22 -24 25 -24 13z"/>
<path d="M1410 5660 c6 -11 15 -20 20 -20 6 0 5 9 -2 20 -7 11 -16 20 -21 20
-4 0 -3 -9 3 -20z"/>
<path d="M1190 5591 c0 -13 25 -20 39 -11 10 5 8 9 -4 14 -23 8 -35 8 -35 -3z"/>
<path d="M1537 5574 c6 -15 23 -19 23 -5 0 5 -7 11 -14 14 -10 4 -13 1 -9 -9z"/>
<path d="M1232 5546 c7 -7 19 -11 26 -8 11 4 11 6 0 13 -7 5 -19 9 -26 9 -10
0 -10 -3 0 -14z"/>
<path d="M1325 5500 c3 -5 10 -10 16 -10 5 0 9 5 9 10 0 6 -7 10 -16 10 -8 0
-12 -4 -9 -10z"/>
<path d="M8210 6940 c0 -5 5 -10 10 -10 6 0 10 5 10 10 0 6 -4 10 -10 10 -5 0
-10 -4 -10 -10z"/>
<path d="M8165 6870 c-3 -5 -1 -10 4 -10 6 0 11 5 11 10 0 6 -2 10 -4 10 -3 0
-8 -4 -11 -10z"/>
<path d="M7641 5954 c0 -11 3 -14 6 -6 3 7 2 16 -1 19 -3 4 -6 -2 -5 -13z"/>
<path d="M7540 5573 c0 -5 5 -15 10 -23 8 -12 10 -11 10 8 0 12 -4 22 -10 22
-5 0 -10 -3 -10 -7z"/>
<path d="M3216 3774 c-19 -50 10 -107 52 -102 23 2 28 9 30 37 5 55 -65 111
-82 65z"/>
<path d="M3300 3440 c-16 -30 8 -74 42 -78 22 -3 30 2 40 22 10 23 8 29 -12
51 -28 30 -56 32 -70 5z"/>
<path d="M3521 3121 c-17 -31 -14 -61 7 -61 25 0 55 34 50 57 -5 26 -44 29
-57 4z"/>
<path d="M7178 3751 c-77 -30 -258 -174 -258 -205 0 -24 74 -94 118 -110 56
-21 175 -21 243 1 96 31 162 117 161 211 0 58 -15 83 -64 108 -38 20 -143 17
-200 -5z"/>
<path d="M6125 3571 c-3 -5 -1 -12 5 -16 5 -3 10 1 10 9 0 18 -6 21 -15 7z"/>
<path d="M8468 3773 c6 -2 18 -2 25 0 6 3 1 5 -13 5 -14 0 -19 -2 -12 -5z"/>
<path d="M8598 3743 c6 -2 18 -2 25 0 6 3 1 5 -13 5 -14 0 -19 -2 -12 -5z"/>
<path d="M8648 3723 c7 -3 16 -2 19 1 4 3 -2 6 -13 5 -11 0 -14 -3 -6 -6z"/>
<path d="M8715 3700 c3 -5 16 -10 28 -9 21 0 21 1 2 9 -28 12 -37 12 -30 0z"/>
<path d="M195 3055 c-38 -19 -65 -35 -58 -35 7 0 29 8 50 19 21 10 54 25 73
34 19 9 28 16 20 16 -8 0 -46 -16 -85 -34z"/>
<path d="M90 3000 c-8 -5 -10 -10 -5 -10 6 0 17 5 25 10 8 5 11 10 5 10 -5 0
-17 -5 -25 -10z"/>
<path d="M1280 2142 c-95 -97 -186 -202 -176 -202 4 0 19 15 34 32 15 18 70
77 122 131 82 86 119 128 108 126 -2 0 -41 -39 -88 -87z"/>
<path d="M6214 1641 c-64 -39 -148 -162 -202 -295 -46 -113 -62 -195 -69 -346
-7 -162 0 -190 43 -190 39 0 163 69 212 118 53 52 113 176 138 282 22 91 24
273 5 347 -24 97 -64 123 -127 84z"/>
<path d="M6686 1333 c-37 -37 -76 -227 -76 -368 0 -139 13 -225 48 -330 52
-152 139 -267 240 -317 72 -36 99 -28 131 37 36 76 47 161 33 247 -35 203
-171 556 -261 676 -35 48 -94 75 -115 55z"/>
<path d="M3080 1235 c-17 -21 -15 -140 4 -193 29 -80 105 -169 184 -211 29
-15 117 -10 135 8 13 13 -8 105 -42 183 -26 61 -109 155 -172 194 -58 37 -90
42 -109 19z"/>
<path d="M5474 842 c-61 -44 -124 -121 -154 -187 -38 -82 -68 -189 -72 -255
l-3 -55 32 -3 c71 -7 187 88 240 198 69 145 82 321 23 328 -16 2 -41 -8 -66
-26z"/>
<path d="M2144 452 c-83 -52 -134 -157 -134 -276 0 -62 17 -104 58 -149 20
-21 35 -27 68 -27 41 0 44 2 77 57 55 93 70 152 65 254 -8 141 -54 190 -134
141z"/>
<path d="M2721 389 c-44 -48 -45 -221 -1 -337 l18 -47 145 -3 145 -3 -9 40
c-33 147 -86 237 -191 327 -58 49 -78 54 -107 23z"/>
<path d="M6485 231 c-22 -10 -61 -40 -87 -67 -49 -51 -59 -63 -97 -126 l-23
-38 166 0 166 0 0 96 c0 92 -1 97 -29 125 -34 34 -42 35 -96 10z"/>
</g>
</svg>
